<?xml version="1.0" encoding="UTF-8" standalone="no"?> <svg xmlns="http://www.w3.org/2000/svg" xmlns:xlink="http://www.w3.org/1999/xlink" viewBox="0 0 64 64"><defs><style>.cls-1{fill:url(#linear-gradient);}.cls-2{fill:url(#linear-gradient-2);}</style><linearGradient id="linear-gradient" x1="5.85" y1="32" x2="58.15" y2="32" gradientUnits="userSpaceOnUse"><stop offset="0" stop-color="#ffae46"/><stop offset="0.19" stop-color="#ff9755"/><stop offset="0.74" stop-color="#ff5a7d"/><stop offset="1" stop-color="#ff428d"/></linearGradient><linearGradient id="linear-gradient-2" x1="22.35" y1="32" x2="41.65" y2="32" xlink:href="#linear-gradient"/></defs><g id="Layer_7" data-name="Layer 7"><path class="cls-1" d="M50.5,13.5a26.15,26.15,0,1,0,0,37A26.18,26.18,0,0,0,50.5,13.5ZM47.67,47.67a22.16,22.16,0,1,1,0-31.34A22.17,22.17,0,0,1,47.67,47.67Z"/><path class="cls-2" d="M41.06,22.94a2,2,0,0,0-2.83,0L32,29.17l-6.23-6.23a2,2,0,0,0-2.83,2.83L29.17,32l-6.23,6.23a2,2,0,1,0,2.83,2.83L32,34.83l6.23,6.23a2,2,0,0,0,2.83-2.83L34.83,32l6.23-6.23A2,2,0,0,0,41.06,22.94Z"/></g></svg>
